<?xml version="1.0" encoding="iso-8859-1"?>
<!-- Uploaded to: SVG Repo, www.svgrepo.com, Generator: SVG Repo Mixer Tools -->
<svg height="800px" width="800px" version="1.1" id="Layer_1" xmlns="http://www.w3.org/2000/svg" xmlns:xlink="http://www.w3.org/1999/xlink" 
	 viewBox="0 0 512.003 512.003" xml:space="preserve">
<circle style="fill:#FDDF6D;" cx="256.001" cy="256.001" r="256.001"/>
<path style="fill:#FCC56B;" d="M310.859,474.208c-141.385,0-256-114.615-256-256c0-75.537,32.722-143.422,84.757-190.281
	C56.738,70.303,0,156.525,0,256c0,141.385,114.615,256,256,256c65.849,0,125.883-24.87,171.243-65.718
	C392.325,464.135,352.77,474.208,310.859,474.208z"/>
<g>
	<path style="fill:#7F184C;" d="M245.899,187.173c-5.752,0-10.414-4.663-10.414-10.414c0-13.433-10.93-24.362-24.362-24.362
		s-24.362,10.93-24.362,24.362c0,5.752-4.663,10.414-10.414,10.414c-5.752,0-10.414-4.663-10.414-10.414
		c0-24.918,20.272-45.19,45.19-45.19s45.19,20.272,45.19,45.19C256.314,182.51,251.651,187.173,245.899,187.173z"/>
	<path style="fill:#7F184C;" d="M421.798,187.173c-5.752,0-10.414-4.663-10.414-10.414c0-13.433-10.93-24.362-24.362-24.362
		s-24.362,10.93-24.362,24.362c0,5.752-4.663,10.414-10.414,10.414s-10.414-4.663-10.414-10.414c0-24.918,20.272-45.19,45.19-45.19
		c24.918,0,45.19,20.272,45.19,45.19C432.213,182.51,427.55,187.173,421.798,187.173z"/>
	<path style="fill:#7F184C;" d="M302.132,403.377c-27.589,0-53.075-14.986-66.511-39.108c-2.799-5.025-0.994-11.368,4.03-14.166
		c5.024-2.799,11.367-0.994,14.166,4.03c9.763,17.528,28.276,28.415,48.315,28.415c19.528,0,38.252-10.998,48.865-28.702
		c2.958-4.932,9.355-6.535,14.287-3.577c4.934,2.958,6.535,9.354,3.577,14.287C354.506,388.503,328.936,403.377,302.132,403.377z"/>
</g>
<ellipse transform="matrix(0.2723 -0.9622 0.9622 0.2723 141.2787 350.4419)" style="fill:#FCEB88;" cx="302.329" cy="81.817" rx="29.854" ry="53.46"/>
<g>
	<path style="fill:#F9A880;" d="M145.987,240.152c-19.011,0-34.423,15.412-34.423,34.423h68.848
		C180.41,255.564,164.998,240.152,145.987,240.152z"/>
	<path style="fill:#F9A880;" d="M446.251,235.539c-19.011,0-34.425,15.412-34.425,34.423h68.848
		C480.676,250.951,465.264,235.539,446.251,235.539z"/>
</g>
</svg>